<svg width="610" height="317" viewBox="0 0 610 317" fill="none" xmlns="http://www.w3.org/2000/svg">
<g filter="url(#filter0_ddddd_1406_1776)">
<g clip-path="url(#clip0_1406_1776)">
<path d="M156.543 81.5577L122.255 81.3071L140.786 45.7214" fill="#3C0A6D"/>
<path d="M175.347 43.6512L140.752 45.7213L156.544 81.5579" fill="#5A199B"/>
<path d="M159.617 9.26873L140.753 45.7243L175.348 43.6541" fill="#9D4EDD"/>
<path d="M175.346 43.659L159.324 9.27148L191.866 9.50931" fill="#C57EFD"/>
<path d="M207.487 46.2074L175.35 43.3587L191.868 9.49976" fill="#9D4EDD"/>
<path d="M207.484 46.2139L175.348 43.3652L188.419 77.973" fill="#5A199B"/>
<path d="M206.694 115.961L191.71 79.2148L224.986 81.3328" fill="#3C0A6D"/>
<path d="M191.874 78.9331L172.039 113.761L206.839 115.976" fill="#320E54"/>
<path d="M191.639 79.2092L224.987 81.3317L210.51 45.78L191.639 79.2092Z" fill="#5A199B"/>
<path d="M245.438 44.92L210.454 45.6037L224.423 82.2853" fill="#7B2BBE"/>
<path d="M210.73 45.7958L245.133 45.0752L231.616 10.4586L210.73 45.7958Z" fill="#9D4EDD"/>
<path d="M231.324 10.4434L245.095 45.6588L263.804 12.5107L231.324 10.4434Z" fill="#C57EFD"/>
</g>
<path d="M264.055 87.7546L253.264 87.6757L270.055 40.1671L283.032 40.262L299.103 88.0107L288.312 87.9319L276.65 51.0998L276.278 51.0971L264.055 87.7546ZM263.518 69.0284L289.007 69.2147L288.949 77.0753L263.46 76.889L263.518 69.0284ZM304.835 88.0526L305.183 40.4239L323.974 40.5612C327.571 40.5875 330.636 41.2534 333.17 42.5588C335.719 43.8488 337.651 45.6693 338.967 48.0201C340.299 50.3556 340.954 53.097 340.931 56.2444C340.908 59.4072 340.205 62.1232 338.824 64.3924C337.444 66.646 335.454 68.368 332.856 69.5584C330.274 70.7489 327.153 71.3308 323.494 71.3041L310.912 71.2121L310.971 63.1189L321.925 63.199C323.848 63.2131 325.446 62.9612 326.722 62.4433C327.997 61.9255 328.948 61.1417 329.576 60.0919C330.22 59.0423 330.547 57.7345 330.558 56.1686C330.57 54.5871 330.262 53.2515 329.634 52.1615C329.022 51.0717 328.074 50.243 326.792 49.6755C325.524 49.0925 323.922 48.794 321.984 48.7798L315.193 48.7302L314.905 88.1262L304.835 88.0526ZM330.715 66.5658L342.394 88.3271L331.278 88.2459L319.854 66.4864L330.715 66.5658ZM343.387 40.7031L354.667 40.7855L365.377 61.3769L365.843 61.3803L376.853 40.9477L388.132 41.0301L370.535 71.6944L370.412 88.5319L360.412 88.4588L360.535 71.6213L343.387 40.7031ZM423.052 41.2853L433.122 41.3589L432.896 72.2897C432.87 75.7626 432.018 78.7954 430.34 81.3879C428.678 83.9806 426.361 85.9948 423.389 87.4306C420.417 88.8508 416.962 89.5466 413.024 89.5178C409.07 89.4889 405.618 88.7427 402.668 87.2791C399.717 85.8001 397.429 83.7522 395.805 81.1355C394.181 78.5188 393.381 75.474 393.406 72.0011L393.633 41.0703L403.702 41.1439L403.483 71.2142C403.469 73.0282 403.853 74.6435 404.633 76.0602C405.429 77.4769 406.553 78.5937 408.005 79.4106C409.456 80.2275 411.151 80.643 413.089 80.6572C415.042 80.6714 416.743 80.2807 418.191 79.4851C419.654 78.6895 420.786 77.5892 421.587 76.1841C422.404 74.7791 422.819 73.1696 422.832 71.3556L423.052 41.2853Z" fill="white"/>
<path d="M451.23 90.6343L445.474 90.5922L456.171 60.9008L462.829 60.9495L473.105 90.7941L467.349 90.7521L459.572 67.0308L459.339 67.0291L451.23 90.6343ZM451.504 78.9639L467.202 79.0787L467.17 83.4101L451.473 83.2954L451.504 78.9639ZM485.759 99.7245C483.869 99.7107 482.248 99.442 480.895 98.9185C479.542 98.4047 478.457 97.7184 477.64 96.8597C476.822 96.0009 476.258 95.052 475.945 94.0128L480.692 92.8992C480.902 93.3368 481.209 93.7702 481.613 94.1996C482.017 94.6386 482.562 95.0011 483.248 95.2872C483.943 95.583 484.819 95.7347 485.875 95.7425C487.368 95.7534 488.606 95.399 489.59 94.6794C490.574 93.9695 491.072 92.7909 491.084 91.1436L491.115 86.9138L490.853 86.9119C490.578 87.4526 490.176 88.0069 489.649 88.5748C489.131 89.1427 488.444 89.6174 487.589 89.9988C486.743 90.3802 485.681 90.5663 484.401 90.5569C482.686 90.5444 481.134 90.1309 479.745 89.3164C478.365 88.4923 477.269 87.273 476.457 85.6584C475.655 84.0342 475.263 82.006 475.281 79.5738C475.298 77.1222 475.721 75.0563 476.547 73.3762C477.383 71.6864 478.502 70.4106 479.904 69.5487C481.305 68.6771 482.864 68.2476 484.579 68.2601C485.887 68.2697 486.961 68.5004 487.801 68.9523C488.65 69.3946 489.325 69.9277 489.824 70.5515C490.324 71.1657 490.702 71.745 490.96 72.2896L491.251 72.2917L491.278 68.5998L496.467 68.6377L496.301 91.3271C496.287 93.236 495.82 94.8122 494.9 96.0555C493.98 97.2989 492.728 98.2249 491.144 98.8335C489.56 99.4421 487.765 99.7391 485.759 99.7245ZM485.9 86.4397C487.014 86.4478 487.966 86.1834 488.755 85.6465C489.543 85.1096 490.145 84.3339 490.559 83.3194C490.974 82.3049 491.186 81.0855 491.197 79.661C491.207 78.256 491.012 77.0238 490.613 75.9646C490.224 74.9055 489.639 74.0824 488.858 73.4952C488.087 72.8985 487.135 72.5959 486.001 72.5877C484.828 72.5791 483.848 72.8772 483.058 73.4819C482.269 74.0867 481.672 74.9205 481.266 75.9835C480.861 77.0369 480.654 78.237 480.644 79.5839C480.634 80.9502 480.824 82.1484 481.214 83.1784C481.613 84.1989 482.204 84.9978 482.984 85.5753C483.775 86.1431 484.747 86.4312 485.9 86.4397ZM511.577 91.5114C509.338 91.495 507.408 91.0158 505.787 90.0736C504.176 89.1219 502.94 87.7852 502.081 86.0637C501.221 84.3325 500.8 82.2992 500.817 79.9639C500.834 77.6674 501.285 75.655 502.17 73.9268C503.064 72.1891 504.305 70.8415 505.891 69.884C507.478 68.9168 509.337 68.441 511.469 68.4566C512.845 68.4667 514.142 68.699 515.36 69.1537C516.587 69.5988 517.667 70.285 518.601 71.2124C519.543 72.1399 520.281 73.3179 520.813 74.7463C521.346 76.165 521.605 77.8531 521.59 79.8105L521.578 81.4239L503.279 81.2901L503.305 77.7436L516.561 77.8404C516.558 76.8326 516.347 75.9347 515.926 75.1467C515.506 74.349 514.914 73.7196 514.152 73.2586C513.4 72.7976 512.519 72.5634 511.512 72.5561C510.436 72.5482 509.489 72.8029 508.672 73.3203C507.854 73.8279 507.214 74.5015 506.753 75.3413C506.301 76.1713 506.066 77.0854 506.049 78.0834L506.027 81.1794C506.017 82.4779 506.247 83.594 506.715 84.5277C507.183 85.4517 507.841 86.1639 508.69 86.6644C509.54 87.1551 510.536 87.4046 511.679 87.413C512.445 87.4186 513.138 87.3171 513.76 87.1084C514.382 86.8901 514.922 86.5694 515.381 86.1464C515.839 85.7233 516.187 85.1977 516.424 84.5696L521.333 85.1578C521.014 86.454 520.414 87.5834 519.535 88.5461C518.666 89.4991 517.555 90.2372 516.205 90.7603C514.854 91.2737 513.311 91.5241 511.577 91.5114ZM531.316 78.1372L531.22 91.2189L525.959 91.1804L526.122 68.8544L531.151 68.8912L531.123 72.6849L531.385 72.6868C531.908 71.4405 532.734 70.4533 533.863 69.725C535.002 68.9969 536.405 68.6389 538.072 68.6511C539.613 68.6623 540.952 69.0016 542.091 69.6689C543.239 70.3362 544.124 71.2972 544.744 72.5518C545.375 73.8065 545.679 75.3253 545.656 77.1082L545.552 91.3236L540.29 91.2852L540.388 77.8838C540.399 76.3915 540.02 75.221 539.251 74.3723C538.492 73.5237 537.434 73.0944 536.077 73.0845C535.157 73.0777 534.336 73.2752 533.616 73.677C532.906 74.0691 532.345 74.6416 531.932 75.3945C531.529 76.1474 531.324 77.0616 531.316 78.1372ZM560.636 91.8699C558.408 91.8536 556.497 91.3503 554.906 90.3599C553.324 89.3696 552.108 88.0089 551.258 86.2777C550.418 84.537 550.006 82.5377 550.023 80.2799C550.039 78.0124 550.49 76.0146 551.375 74.2865C552.26 72.5486 553.5 71.201 555.096 70.2436C556.702 69.2766 558.596 68.8011 560.776 68.817C562.588 68.8302 564.189 69.1763 565.58 69.8551C566.98 70.5243 568.092 71.4675 568.917 72.6849C569.741 73.8926 570.206 75.3011 570.31 76.9105L565.281 76.8737C565.086 75.7967 564.608 74.8968 563.847 74.1741C563.097 73.4418 562.087 73.0711 560.817 73.0618C559.742 73.0539 558.795 73.3377 557.977 73.9132C557.159 74.4789 556.518 75.298 556.055 76.3702C555.601 77.4426 555.369 78.7297 555.358 80.2317C555.347 81.753 555.56 83.0628 555.998 84.1611C556.435 85.2496 557.054 86.0924 557.854 86.6894C558.664 87.2767 559.616 87.5744 560.711 87.5824C561.487 87.5881 562.18 87.4478 562.793 87.1615C563.415 86.8657 563.937 86.4382 564.358 85.8793C564.779 85.3203 565.069 84.6392 565.23 83.8361L570.26 83.8728C570.122 85.4514 569.647 86.8482 568.833 88.0633C568.02 89.2687 566.918 90.2103 565.528 90.8882C564.137 91.5563 562.507 91.8836 560.636 91.8699ZM577.734 99.9315C577.016 99.9263 576.353 99.8633 575.743 99.7425C575.143 99.6315 574.665 99.5021 574.307 99.3541L575.558 95.2641C576.322 95.4926 577.004 95.6042 577.605 95.5989C578.206 95.5936 578.736 95.4085 579.194 95.0436C579.662 94.6884 580.058 94.0905 580.384 93.2498L580.844 92.0467L572.914 69.1964L578.496 69.2372L583.518 86.1356L583.75 86.1373L589.034 69.3142L594.63 69.3551L585.508 94.3193C585.082 95.4985 584.523 96.507 583.828 97.345C583.134 98.1927 582.286 98.8358 581.285 99.2743C580.293 99.7225 579.11 99.9416 577.734 99.9315Z" fill="white"/>
</g>
<defs>
<filter id="filter0_ddddd_1406_1776" x="0" y="0" width="609.684" height="316.596" filterUnits="userSpaceOnUse" color-interpolation-filters="sRGB">
<feFlood flood-opacity="0" result="BackgroundImageFix"/>
<feColorMatrix in="SourceAlpha" type="matrix" values="0 0 0 0 0 0 0 0 0 0 0 0 0 0 0 0 0 0 127 0" result="hardAlpha"/>
<feOffset dx="-3" dy="6"/>
<feGaussianBlur stdDeviation="7.5"/>
<feColorMatrix type="matrix" values="0 0 0 0 0 0 0 0 0 0 0 0 0 0 0 0 0 0 0.69 0"/>
<feBlend mode="normal" in2="BackgroundImageFix" result="effect1_dropShadow_1406_1776"/>
<feColorMatrix in="SourceAlpha" type="matrix" values="0 0 0 0 0 0 0 0 0 0 0 0 0 0 0 0 0 0 127 0" result="hardAlpha"/>
<feOffset dx="-12" dy="24"/>
<feGaussianBlur stdDeviation="13.5"/>
<feColorMatrix type="matrix" values="0 0 0 0 0 0 0 0 0 0 0 0 0 0 0 0 0 0 0.6 0"/>
<feBlend mode="normal" in2="effect1_dropShadow_1406_1776" result="effect2_dropShadow_1406_1776"/>
<feColorMatrix in="SourceAlpha" type="matrix" values="0 0 0 0 0 0 0 0 0 0 0 0 0 0 0 0 0 0 127 0" result="hardAlpha"/>
<feOffset dx="-27" dy="55"/>
<feGaussianBlur stdDeviation="18.5"/>
<feColorMatrix type="matrix" values="0 0 0 0 0 0 0 0 0 0 0 0 0 0 0 0 0 0 0.35 0"/>
<feBlend mode="normal" in2="effect2_dropShadow_1406_1776" result="effect3_dropShadow_1406_1776"/>
<feColorMatrix in="SourceAlpha" type="matrix" values="0 0 0 0 0 0 0 0 0 0 0 0 0 0 0 0 0 0 127 0" result="hardAlpha"/>
<feOffset dx="-48" dy="97"/>
<feGaussianBlur stdDeviation="21.5"/>
<feColorMatrix type="matrix" values="0 0 0 0 0 0 0 0 0 0 0 0 0 0 0 0 0 0 0.1 0"/>
<feBlend mode="normal" in2="effect3_dropShadow_1406_1776" result="effect4_dropShadow_1406_1776"/>
<feColorMatrix in="SourceAlpha" type="matrix" values="0 0 0 0 0 0 0 0 0 0 0 0 0 0 0 0 0 0 127 0" result="hardAlpha"/>
<feOffset dx="-75" dy="152"/>
<feGaussianBlur stdDeviation="23.5"/>
<feColorMatrix type="matrix" values="0 0 0 0 0 0 0 0 0 0 0 0 0 0 0 0 0 0 0.01 0"/>
<feBlend mode="normal" in2="effect4_dropShadow_1406_1776" result="effect5_dropShadow_1406_1776"/>
<feBlend mode="normal" in="SourceGraphic" in2="effect5_dropShadow_1406_1776" result="shape"/>
</filter>
<clipPath id="clip0_1406_1776">
<rect width="141.729" height="107.562" fill="white" transform="translate(122.786 9) rotate(0.418737)"/>
</clipPath>
</defs>
</svg>
