<svg width="160" height="38" viewBox="0 0 160 38" fill="none" xmlns="http://www.w3.org/2000/svg">
<g clip-path="url(#clip0_1406_2243)">
<path d="M11.6507 24.472L0.0860224 24.3875L6.33624 12.3849" fill="#3C0A6D"/>
<path d="M17.9934 11.6868L6.32484 12.3851L11.6514 24.4723" fill="#5A199B"/>
<path d="M12.6877 0.0907636L6.32508 12.3868L17.9936 11.6885" fill="#9D4EDD"/>
<path d="M17.9931 11.6903L12.5891 0.0917969L23.565 0.172014" fill="#C57EFD"/>
<path d="M28.8337 12.5501L17.9944 11.5892L23.5655 0.169011" fill="#9D4EDD"/>
<path d="M28.833 12.5516L17.9937 11.5908L22.4026 23.2636" fill="#5A199B"/>
<path d="M28.5662 36.0767L23.5125 23.6826L34.7361 24.397" fill="#3C0A6D"/>
<path d="M23.5676 23.5876L16.8775 35.3346L28.615 36.0817" fill="#320E54"/>
<path d="M23.4883 23.6811L34.7362 24.397L29.8534 12.4058L23.4883 23.6811Z" fill="#5A199B"/>
<path d="M41.6345 12.1152L29.8347 12.3458L34.5462 24.7181" fill="#7B2BBE"/>
<path d="M29.9274 12.411L41.5313 12.1679L36.9721 0.492185L29.9274 12.411Z" fill="#9D4EDD"/>
<path d="M36.8735 0.486328L41.5183 12.3641L47.8287 1.18361L36.8735 0.486328Z" fill="#C57EFD"/>
</g>
<path d="M47.9082 27.3131L44.2686 27.2865L49.9317 11.2624L54.3087 11.2944L59.7292 27.3994L56.0896 27.3728L52.1561 14.9498L52.0306 14.9489L47.9082 27.3131ZM47.7269 20.9969L56.324 21.0598L56.3046 23.7111L47.7075 23.6482L47.7269 20.9969ZM61.6628 27.4136L61.7802 11.349L68.1182 11.3953C69.3314 11.4042 70.3652 11.6287 71.2196 12.069C72.0794 12.5042 72.7312 13.1182 73.1751 13.9111C73.6244 14.6988 73.8451 15.6235 73.8373 16.685C73.8295 17.7518 73.5927 18.6679 73.1269 19.4333C72.6612 20.1934 71.9901 20.7742 71.1139 21.1757C70.2428 21.5772 69.1902 21.7735 67.9561 21.7645L63.7125 21.7335L63.7324 19.0037L67.4269 19.0307C68.0754 19.0355 68.6147 18.9505 69.0448 18.7759C69.4749 18.6012 69.7958 18.3368 70.0076 17.9828C70.2246 17.6287 70.335 17.1876 70.3389 16.6595C70.3428 16.1261 70.2389 15.6756 70.0271 15.3079C69.8206 14.9404 69.5011 14.6609 69.0684 14.4694C68.641 14.2728 68.1005 14.1721 67.4468 14.1673L65.1563 14.1506L65.0592 27.4384L61.6628 27.4136ZM70.3917 20.1663L74.3309 27.5062L70.5814 27.4788L66.7285 20.1396L70.3917 20.1663ZM74.666 11.4431L78.4703 11.4709L82.0829 18.4162L82.2398 18.4173L85.9536 11.5256L89.7579 11.5534L83.8225 21.8961L83.781 27.5752L80.4081 27.5506L80.4496 21.8715L74.666 11.4431ZM101.536 11.6395L104.932 11.6643L104.856 22.0969C104.847 23.2683 104.56 24.2912 103.994 25.1657C103.433 26.0401 102.652 26.7195 101.65 27.2038C100.647 27.6828 99.4818 27.9175 98.1536 27.9078C96.8201 27.898 95.6557 27.6463 94.6605 27.1527C93.6652 26.6538 92.8937 25.9631 92.3458 25.0805C91.7979 24.1979 91.5282 23.171 91.5368 21.9996L91.613 11.567L95.0095 11.5918L94.9354 21.7342C94.9309 22.346 95.0603 22.8908 95.3235 23.3687C95.592 23.8465 95.971 24.2232 96.4605 24.4987C96.9501 24.7743 97.5217 24.9144 98.1754 24.9192C98.8343 24.924 99.4079 24.7922 99.8962 24.5238C100.39 24.2555 100.772 23.8844 101.042 23.4105C101.317 22.9366 101.457 22.3937 101.462 21.7819L101.536 11.6395Z" fill="white"/>
<path d="M111.042 28.0427L109.1 28.0285L112.708 18.0139L114.954 18.0303L118.42 28.0966L116.479 28.0824L113.855 20.0815L113.777 20.0809L111.042 28.0427ZM111.134 24.1064L116.429 24.1451L116.418 25.606L111.123 25.5673L111.134 24.1064ZM122.688 31.1087C122.051 31.104 121.504 31.0134 121.047 30.8368C120.591 30.6635 120.225 30.4321 119.949 30.1424C119.674 29.8528 119.483 29.5327 119.378 29.1822L120.979 28.8066C121.05 28.9542 121.153 29.1004 121.289 29.2452C121.426 29.3933 121.609 29.5156 121.841 29.612C122.075 29.7118 122.371 29.763 122.727 29.7656C123.23 29.7693 123.648 29.6498 123.98 29.407C124.312 29.1676 124.48 28.7701 124.484 28.2144L124.494 26.7878L124.406 26.7872C124.313 26.9695 124.178 27.1565 124 27.348C123.825 27.5396 123.594 27.6997 123.305 27.8283C123.02 27.957 122.661 28.0197 122.23 28.0166C121.651 28.0123 121.128 27.8729 120.659 27.5982C120.194 27.3202 119.824 26.9089 119.55 26.3643C119.28 25.8165 119.148 25.1324 119.154 24.3121C119.16 23.4852 119.302 22.7884 119.581 22.2217C119.863 21.6518 120.24 21.2215 120.713 20.9307C121.186 20.6368 121.711 20.4919 122.29 20.4961C122.731 20.4993 123.093 20.5772 123.377 20.7296C123.663 20.8788 123.891 21.0586 124.059 21.269C124.227 21.4761 124.355 21.6715 124.442 21.8552L124.54 21.8559L124.549 20.6107L126.299 20.6235L126.243 28.2763C126.239 28.9202 126.081 29.4518 125.771 29.8712C125.461 30.2906 125.038 30.6029 124.504 30.8082C123.97 31.0134 123.364 31.1136 122.688 31.1087ZM122.735 26.6279C123.111 26.6306 123.432 26.5414 123.698 26.3603C123.964 26.1793 124.167 25.9176 124.307 25.5754C124.447 25.2333 124.518 24.822 124.522 24.3415C124.525 23.8676 124.46 23.452 124.325 23.0948C124.194 22.7375 123.996 22.4599 123.733 22.2619C123.473 22.0606 123.152 21.9585 122.769 21.9557C122.374 21.9529 122.043 22.0534 121.777 22.2574C121.511 22.4613 121.309 22.7426 121.173 23.1011C121.036 23.4564 120.966 23.8612 120.963 24.3155C120.959 24.7763 121.023 25.1805 121.155 25.5279C121.29 25.8721 121.489 26.1415 121.752 26.3363C122.019 26.5278 122.346 26.625 122.735 26.6279ZM131.396 28.3385C130.641 28.333 129.99 28.1713 129.443 27.8536C128.9 27.5325 128.483 27.0817 128.193 26.5011C127.903 25.9171 127.761 25.2313 127.767 24.4437C127.772 23.6691 127.925 22.9903 128.223 22.4074C128.525 21.8213 128.943 21.3668 129.478 21.0438C130.013 20.7176 130.64 20.5571 131.36 20.5624C131.824 20.5658 132.261 20.6442 132.672 20.7975C133.086 20.9476 133.45 21.1791 133.765 21.4919C134.083 21.8047 134.332 22.202 134.511 22.6838C134.691 23.1623 134.778 23.7317 134.773 24.3919L134.769 24.9361L128.597 24.891L128.606 23.6948L133.077 23.7274C133.076 23.3875 133.005 23.0847 132.863 22.8189C132.721 22.5498 132.522 22.3375 132.265 22.182C132.011 22.0266 131.714 21.9476 131.374 21.9451C131.011 21.9424 130.692 22.0284 130.416 22.2028C130.14 22.3741 129.924 22.6013 129.769 22.8845C129.616 23.1645 129.537 23.4728 129.532 23.8094L129.524 24.8536C129.521 25.2916 129.598 25.668 129.756 25.983C129.914 26.2946 130.136 26.5349 130.422 26.7037C130.709 26.8692 131.045 26.9533 131.43 26.9562C131.689 26.958 131.923 26.9238 132.132 26.8534C132.342 26.7798 132.524 26.6716 132.679 26.5289C132.834 26.3863 132.951 26.209 133.031 25.9971L134.687 26.1955C134.579 26.6327 134.377 27.0136 134.08 27.3383C133.787 27.6598 133.412 27.9087 132.957 28.0852C132.501 28.2583 131.981 28.3428 131.396 28.3385ZM138.054 23.8276L138.021 28.2398L136.247 28.2269L136.302 20.6966L137.998 20.709L137.989 21.9885L138.077 21.9892C138.253 21.5688 138.532 21.2358 138.913 20.9902C139.297 20.7446 139.77 20.6239 140.332 20.628C140.852 20.6318 141.304 20.7462 141.688 20.9713C142.075 21.1964 142.374 21.5205 142.583 21.9437C142.796 22.3669 142.898 22.8791 142.89 23.4805L142.855 28.2752L141.081 28.2622L141.114 23.7421C141.117 23.2387 140.99 22.8439 140.73 22.5577C140.474 22.2714 140.117 22.1267 139.66 22.1233C139.349 22.121 139.072 22.1877 138.83 22.3232C138.59 22.4554 138.401 22.6485 138.262 22.9024C138.126 23.1564 138.056 23.4648 138.054 23.8276ZM147.943 28.4594C147.191 28.4539 146.547 28.2842 146.01 27.9501C145.477 27.6161 145.067 27.1571 144.78 26.5733C144.497 25.9861 144.358 25.3118 144.363 24.5503C144.369 23.7855 144.521 23.1116 144.819 22.5287C145.118 21.9426 145.536 21.488 146.075 21.1651C146.616 20.839 147.255 20.6786 147.99 20.6839C148.601 20.6884 149.141 20.8051 149.61 21.0341C150.083 21.2598 150.458 21.5779 150.736 21.9885C151.014 22.3959 151.171 22.871 151.206 23.4138L149.51 23.4014C149.444 23.0381 149.283 22.7346 149.026 22.4908C148.773 22.2439 148.432 22.1188 148.004 22.1157C147.641 22.113 147.322 22.2087 147.046 22.4028C146.77 22.5937 146.554 22.8699 146.398 23.2316C146.245 23.5933 146.166 24.0274 146.163 24.534C146.159 25.0471 146.231 25.4889 146.379 25.8593C146.526 26.2265 146.735 26.5107 147.005 26.7121C147.278 26.9102 147.599 27.0106 147.968 27.0133C148.23 27.0152 148.464 26.9679 148.671 26.8713C148.88 26.7715 149.056 26.6274 149.198 26.4388C149.34 26.2503 149.438 26.0206 149.493 25.7497L151.189 25.7621C151.142 26.2945 150.982 26.7657 150.708 27.1755C150.434 27.5821 150.062 27.8997 149.593 28.1283C149.124 28.3537 148.574 28.464 147.943 28.4594ZM153.71 31.1785C153.468 31.1767 153.244 31.1555 153.039 31.1148C152.836 31.0773 152.675 31.0337 152.554 30.9838L152.976 29.6042C153.234 29.6813 153.464 29.7189 153.667 29.7172C153.869 29.7154 154.048 29.6529 154.202 29.5299C154.36 29.4101 154.494 29.2084 154.604 28.9248L154.759 28.519L152.084 20.8119L153.967 20.8257L155.661 26.5253L155.739 26.5259L157.521 20.8517L159.409 20.8655L156.332 29.2856C156.188 29.6833 156 30.0235 155.766 30.3061C155.531 30.592 155.245 30.8089 154.908 30.9568C154.573 31.108 154.174 31.1819 153.71 31.1785Z" fill="white"/>
<defs>
<clipPath id="clip0_1406_2243">
<rect width="47.8036" height="36.2795" fill="white" transform="translate(0.265137) rotate(0.418737)"/>
</clipPath>
</defs>
</svg>
