<svg width="50" height="50" viewBox="0 0 50 50" fill="none" xmlns="http://www.w3.org/2000/svg">
<g clip-path="url(#clip0_1535_370)">
<path d="M29.7852 25C29.7852 27.6428 27.6428 29.7852 25 29.7852C22.3572 29.7852 20.2148 27.6428 20.2148 25C20.2148 22.3572 22.3572 20.2148 25 20.2148C27.6428 20.2148 29.7852 22.3572 29.7852 25Z" fill="black"/>
<path d="M36.1904 16.5329C35.9603 15.9095 35.5934 15.3453 35.1165 14.8822C34.6534 14.4054 34.0896 14.0384 33.4659 13.8084C32.9601 13.6119 32.2002 13.3781 30.8006 13.3144C29.2865 13.2453 28.8326 13.2305 24.9996 13.2305C21.1662 13.2305 20.7122 13.245 19.1986 13.314C17.799 13.3781 17.0387 13.6119 16.5332 13.8084C15.9095 14.0384 15.3453 14.4054 14.8826 14.8822C14.4058 15.3453 14.0388 15.9091 13.8084 16.5329C13.6119 17.0387 13.3781 17.799 13.3144 19.1986C13.2453 20.7122 13.2305 21.1662 13.2305 24.9996C13.2305 28.8326 13.2453 29.2865 13.3144 30.8006C13.3781 32.2002 13.6119 32.9601 13.8084 33.4659C14.0388 34.0896 14.4054 34.6534 14.8822 35.1165C15.3453 35.5934 15.9091 35.9603 16.5329 36.1904C17.0387 36.3872 17.799 36.621 19.1986 36.6848C20.7122 36.7538 21.1658 36.7683 24.9992 36.7683C28.833 36.7683 29.2869 36.7538 30.8002 36.6848C32.1998 36.621 32.9601 36.3872 33.4659 36.1904C34.7179 35.7074 35.7074 34.7179 36.1904 33.4659C36.3868 32.9601 36.6207 32.2002 36.6848 30.8006C36.7538 29.2865 36.7683 28.8326 36.7683 24.9996C36.7683 21.1662 36.7538 20.7122 36.6848 19.1986C36.621 17.799 36.3872 17.0387 36.1904 16.5329ZM24.9996 32.3707C20.9281 32.3707 17.6277 29.0706 17.6277 24.9992C17.6277 20.9278 20.9281 17.6277 24.9996 17.6277C29.0706 17.6277 32.3711 20.9278 32.3711 24.9992C32.3711 29.0706 29.0706 32.3707 24.9996 32.3707ZM32.6625 19.0589C31.7112 19.0589 30.9398 18.2876 30.9398 17.3362C30.9398 16.3848 31.7112 15.6135 32.6625 15.6135C33.6139 15.6135 34.3853 16.3848 34.3853 17.3362C34.3849 18.2876 33.6139 19.0589 32.6625 19.0589Z" fill="black"/>
<path d="M25 0C11.195 0 0 11.195 0 25C0 38.805 11.195 50 25 50C38.805 50 50 38.805 50 25C50 11.195 38.805 0 25 0ZM39.2689 30.9185C39.1994 32.4467 38.9565 33.49 38.6017 34.4032C37.8559 36.3316 36.3316 37.8559 34.4032 38.6017C33.4904 38.9565 32.4467 39.1991 30.9189 39.2689C29.388 39.3387 28.899 39.3555 25.0004 39.3555C21.1014 39.3555 20.6127 39.3387 19.0815 39.2689C17.5537 39.1991 16.51 38.9565 15.5972 38.6017C14.6389 38.2412 13.7714 37.6762 13.0543 36.9457C12.3241 36.2289 11.7592 35.3611 11.3987 34.4032C11.0439 33.4904 10.8009 32.4467 10.7315 30.9189C10.6609 29.3877 10.6445 28.8986 10.6445 25C10.6445 21.1014 10.6609 20.6123 10.7311 19.0815C10.8006 17.5533 11.0432 16.51 11.3979 15.5968C11.7584 14.6389 12.3238 13.7711 13.0543 13.0543C13.7711 12.3238 14.6389 11.7588 15.5968 11.3983C16.51 11.0435 17.5533 10.8009 19.0815 10.7311C20.6123 10.6613 21.1014 10.6445 25 10.6445C28.8986 10.6445 29.3877 10.6613 30.9185 10.7315C32.4467 10.8009 33.49 11.0435 34.4032 11.3979C35.3611 11.7584 36.2289 12.3238 36.9461 13.0543C37.6762 13.7714 38.2416 14.6389 38.6017 15.5968C38.9568 16.51 39.1994 17.5533 39.2693 19.0815C39.3391 20.6123 39.3555 21.1014 39.3555 25C39.3555 28.8986 39.3391 29.3877 39.2689 30.9185Z" fill="black"/>
</g>
<defs>
<clipPath id="clip0_1535_370">
<rect width="50" height="50" fill="white"/>
</clipPath>
</defs>
</svg>
