<svg width="49" height="37" viewBox="0 0 49 37" fill="none" xmlns="http://www.w3.org/2000/svg">
<g clip-path="url(#clip0_1406_2244)">
<path d="M11.6507 24.472L0.0860224 24.3875L6.33624 12.3849" fill="#3C0A6D"/>
<path d="M17.9934 11.6868L6.32484 12.3851L11.6514 24.4723" fill="#5A199B"/>
<path d="M12.6877 0.0907636L6.32508 12.3868L17.9936 11.6885" fill="#9D4EDD"/>
<path d="M17.9931 11.6903L12.5891 0.0917969L23.565 0.172014" fill="#C57EFD"/>
<path d="M28.8337 12.5501L17.9944 11.5892L23.5655 0.169011" fill="#9D4EDD"/>
<path d="M28.833 12.5516L17.9937 11.5908L22.4026 23.2636" fill="#5A199B"/>
<path d="M28.5662 36.0767L23.5125 23.6826L34.7361 24.397" fill="#3C0A6D"/>
<path d="M23.5676 23.5876L16.8775 35.3346L28.615 36.0817" fill="#320E54"/>
<path d="M23.4883 23.6811L34.7362 24.397L29.8534 12.4058L23.4883 23.6811Z" fill="#5A199B"/>
<path d="M41.6345 12.1152L29.8347 12.3458L34.5462 24.7181" fill="#7B2BBE"/>
<path d="M29.9274 12.411L41.5313 12.1679L36.9721 0.492185L29.9274 12.411Z" fill="#9D4EDD"/>
<path d="M36.8735 0.486328L41.5183 12.3641L47.8287 1.18361L36.8735 0.486328Z" fill="#C57EFD"/>
</g>
<defs>
<clipPath id="clip0_1406_2244">
<rect width="47.8036" height="36.2795" fill="white" transform="translate(0.265137) rotate(0.418737)"/>
</clipPath>
</defs>
</svg>
