<svg width="50" height="50" viewBox="0 0 50 50" fill="none" xmlns="http://www.w3.org/2000/svg">
<circle cx="25" cy="25" r="25" fill="white"/>
<g clip-path="url(#clip0_1821_197)">
<path d="M18.053 20.3613H12.8334C12.6018 20.3613 12.4141 20.5491 12.4141 20.7807V37.5488C12.4141 37.7805 12.6018 37.9682 12.8334 37.9682H18.053C18.2846 37.9682 18.4723 37.7805 18.4723 37.5488V20.7807C18.4723 20.5491 18.2846 20.3613 18.053 20.3613Z" fill="black"/>
<path d="M15.4442 12.0273C13.5451 12.0273 12 13.5707 12 15.4678C12 17.3657 13.5451 18.9097 15.4442 18.9097C17.3419 18.9097 18.8857 17.3656 18.8857 15.4678C18.8858 13.5707 17.3419 12.0273 15.4442 12.0273Z" fill="black"/>
<path d="M31.3276 19.9453C29.2313 19.9453 27.6816 20.8465 26.7416 21.8705V20.7814C26.7416 20.5499 26.5539 20.3621 26.3223 20.3621H21.3237C21.092 20.3621 20.9043 20.5499 20.9043 20.7814V37.5496C20.9043 37.7812 21.092 37.9689 21.3237 37.9689H26.5318C26.7634 37.9689 26.9511 37.7812 26.9511 37.5496V29.2532C26.9511 26.4576 27.7105 25.3684 29.6593 25.3684C31.7818 25.3684 31.9504 27.1144 31.9504 29.3971V37.5497C31.9504 37.7813 32.1381 37.969 32.3698 37.969H37.5799C37.8115 37.969 37.9992 37.7813 37.9992 37.5497V28.352C37.9992 24.195 37.2065 19.9453 31.3276 19.9453Z" fill="black"/>
</g>
<defs>
<clipPath id="clip0_1821_197">
<rect width="26" height="26" fill="white" transform="translate(12 12)"/>
</clipPath>
</defs>
</svg>
