<svg width="165" height="103" viewBox="0 0 165 103" fill="none" xmlns="http://www.w3.org/2000/svg">
<path d="M27.9072 54.1138H48.3528C54.2531 50.138 58.0542 47.3412 65.2314 43.1039L54.3046 42.502C43.4154 46.8866 27.9072 54.1138 27.9072 54.1138Z" fill="white"/>
<path d="M80.2809 33.4844L62.1011 39.9471L70.4157 40.8266L85.9726 34.2107L80.2809 33.4844Z" fill="white"/>
<path d="M102.402 27.5742L105.476 28.3627L91.3954 32.7896L85.9216 32.0581L102.402 27.5742Z" fill="white"/>
<path d="M118.924 24.8125L120.248 25.4272L108.728 27.424L106.75 26.8248L118.924 24.8125Z" fill="white"/>
<path d="M122.186 24.3048L122.85 24.7198L137.237 23.9473L122.186 24.3048Z" fill="white"/>
<path d="M27.752 53.6122H48.1975C54.0979 49.6361 57.8989 46.8393 65.0762 42.602L54.1493 42C43.2601 46.3846 27.752 53.6122 27.752 53.6122Z" fill="white"/>
<path d="M80.1253 32.9824L61.9456 39.4452L70.2601 40.3247L85.8171 33.7088L80.1253 32.9824Z" fill="white"/>
<path d="M102.246 27.0723L105.321 27.8608L91.2399 32.2877L85.7661 31.5562L102.246 27.0723Z" fill="white"/>
<path d="M118.768 24.3125L120.093 24.9272L108.572 26.924L106.594 26.3248L118.768 24.3125Z" fill="white"/>
<path d="M122.03 23.8029L122.695 24.2179L137.081 23.4453L122.03 23.8029Z" fill="white"/>
<path fill-rule="evenodd" clip-rule="evenodd" d="M82.9067 4.75781C73.8448 4.75781 66.499 11.5945 66.499 20.0281C66.499 25.0826 68.4099 30.6467 71.724 35.03C72.5208 34.7117 73.5128 34.3614 75.0175 33.8298C76.9773 33.1377 79.8065 32.1384 84.207 30.5028C90.4018 28.4541 95.2726 26.9351 98.4399 26.1941C99.0126 24.1291 99.3149 22.0383 99.3149 20.0281C99.3149 11.5945 91.9686 4.75781 82.9067 4.75781ZM95.6949 32.6342C93.0797 33.8857 89.648 35.2001 85.8737 36.4961C83.0485 37.4663 80.7158 38.3507 78.7761 39.086C78.0268 39.3702 77.336 39.6321 76.6982 39.8681C77.7079 40.5685 78.7792 41.1696 79.9064 41.6514C81.8112 42.4652 84.0026 42.4652 85.9075 41.6514C90.0042 39.9004 93.3637 36.5724 95.6949 32.6342ZM87.5948 21.1658C87.5948 23.755 85.4962 25.8538 82.9067 25.8538C80.3176 25.8538 78.2191 23.755 78.2191 21.1658C78.2191 18.5767 80.3176 16.4778 82.9067 16.4778C85.4962 16.4778 87.5948 18.5767 87.5948 21.1658Z" fill="white"/>
<path d="M82.68 47.4676C87.1623 47.4676 90.7959 47.0638 90.7959 46.5658C90.7959 46.0678 87.1623 45.6641 82.68 45.6641C78.1978 45.6641 74.5642 46.0678 74.5642 46.5658C74.5642 47.0638 78.1978 47.4676 82.68 47.4676Z" fill="white"/>
<path d="M30.7391 72.884C30.7391 74.6738 31.681 75.5684 33.5648 75.5684C35.4486 75.5684 36.3904 74.6738 36.3904 72.884V63.4785H38.651V72.8437C38.651 74.472 38.2204 75.6628 37.3592 76.4161C36.5115 77.1564 35.24 77.5262 33.5446 77.5262C31.8626 77.5262 30.5978 77.1564 29.7501 76.4161C28.9024 75.6628 28.4785 74.472 28.4785 72.8437V63.4785H30.7391V72.884ZM43.9672 72.3794V77.3042H41.7268V63.4785H46.9745C50.0962 63.4785 51.657 64.9454 51.657 67.8785C51.657 69.8434 50.9036 71.1755 49.3965 71.8748L51.6772 77.3042H49.2149L47.2167 72.3794H43.9672ZM49.3562 67.8987C49.3562 66.2437 48.5622 65.4161 46.9745 65.4161H43.9672V70.4418H47.0149C47.8222 70.4418 48.4142 70.2132 48.791 69.7556C49.1677 69.2848 49.3562 68.6657 49.3562 67.8987ZM54.2036 63.4785H59.4513C60.8642 63.4785 61.9203 63.7681 62.6201 64.3464C63.3195 64.9115 63.6697 65.8198 63.6697 67.0712C63.6697 67.8921 63.535 68.538 63.266 69.0088C63.0102 69.4801 62.6 69.8701 62.0348 70.1794C63.3533 70.6911 64.0128 71.7608 64.0128 73.3886C64.0128 75.9993 62.546 77.3042 59.6128 77.3042H54.2036V63.4785ZM59.4513 71.2693H56.444V75.3666H59.4917C60.2314 75.3666 60.7834 75.2122 61.1468 74.9024C61.5232 74.5931 61.7119 74.0617 61.7119 73.3079C61.7119 72.5545 61.4964 72.0298 61.066 71.7336C60.6351 71.4243 60.0972 71.2693 59.4513 71.2693ZM59.3302 65.4161H56.444V69.3721H59.411C60.7295 69.3721 61.389 68.6929 61.389 67.3336C61.389 66.0554 60.7027 65.4161 59.3302 65.4161ZM65.1935 77.3042L68.6046 63.4785H73.0651L76.4963 77.3042H74.2357L73.489 74.3372H68.1807L67.4339 77.3042H65.1935ZM70.3403 65.3556L68.6247 72.3593H73.0449L71.3495 65.3556H70.3403ZM78.4672 77.3042V63.4785H82.3828L86.581 75.3262H86.8837V63.4785H89.1241V77.3042H85.2892L80.9901 65.4363H80.7076V77.3042H78.4672Z" fill="white"/>
<path d="M102.39 71.5532V70.1606H106.245V77.023C104.55 77.3459 103.036 77.5074 101.704 77.5074C99.6721 77.5074 98.2593 76.922 97.4656 75.7514C96.685 74.5808 96.2949 72.7779 96.2949 70.3422C96.2949 67.8935 96.685 66.0835 97.4656 64.9129C98.2593 63.7291 99.6585 63.1367 101.664 63.1367C102.915 63.1367 104.213 63.2714 105.559 63.5404L106.245 63.6615L106.185 64.9532C104.516 64.6707 103.07 64.5294 101.845 64.5294C100.298 64.5294 99.2548 64.9805 98.7169 65.8817C98.1785 66.7697 97.9096 68.2568 97.9096 70.3422C97.9096 72.4146 98.1785 73.9016 98.7169 74.8028C99.2548 75.6908 100.291 76.1349 101.825 76.1349C102.767 76.1349 103.729 76.041 104.711 75.8523V71.5532H102.39ZM110.851 71.9569V77.3055H109.297V63.3386H114.464C115.944 63.3386 117.054 63.6817 117.794 64.3679C118.548 65.0542 118.925 66.1239 118.925 67.5771C118.925 69.7302 118.07 71.0825 116.361 71.634L119.046 77.3055H117.33L114.807 71.9569H110.851ZM114.484 70.5844C116.382 70.5844 117.33 69.6091 117.33 67.6578C117.33 65.6935 116.375 64.711 114.464 64.711H110.851V70.5844H114.484ZM121.734 77.3055V63.3386H123.288V77.3055H121.734ZM131.687 77.3055H126.701V63.3386H131.687C133.961 63.3386 135.468 64.2403 136.208 66.0431C136.639 67.0796 136.854 68.4384 136.854 70.1202C136.854 73.6321 135.979 75.8458 134.23 76.7606C133.53 77.1239 132.683 77.3055 131.687 77.3055ZM135.259 70.1202C135.259 67.4429 134.661 65.7742 133.463 65.1147C132.978 64.8458 132.387 64.711 131.687 64.711H128.255V75.933H131.687C134.068 75.933 135.259 73.9954 135.259 70.1202Z" fill="white"/>
</svg>
